<?xml version="1.0" encoding="UTF-8" standalone="no"?>
<!DOCTYPE svg PUBLIC "-//W3C//DTD SVG 1.1//EN" "http://www.w3.org/Graphics/SVG/1.1/DTD/svg11.dtd">
<svg version="1.1" xmlns:dc="http://purl.org/dc/elements/1.1/" xmlns="http://www.w3.org/2000/svg" xmlns:xl="http://www.w3.org/1999/xlink" viewBox="202 120 642 65" width="642" height="65">
  <defs>
    <marker orient="auto" overflow="visible" markerUnits="strokeWidth" id="SharpArrow_Marker" stroke-linejoin="miter" stroke-miterlimit="10" viewBox="-2 -2 5 4" markerWidth="5" markerHeight="4" color="black">
      <g>
        <path d="M 1.5 0 L -.9 -.9 L 0 0 L 0 0 L -.9 .9 Z" fill="currentColor" stroke="currentColor" stroke-width="1"/>
      </g>
    </marker>
  </defs>
  <g id="Canvas_1" stroke-opacity="1" fill="none" fill-opacity="1" stroke="none" stroke-dasharray="none">
    <title>Canvas 1</title>
    <g id="Canvas_1_Layer_1">
      <title>Layer 1</title>
      <g id="Line_4">
        <path d="M 755.5 159.27468 C 774.0465 159.52032 811.5018 159.70416 835.7208 157.78422 M 755.5 159.27468 C 774.5465 159.02032 812.0018 159.20416 836.2208 157.28422" marker-end="url(#SharpArrow_Marker)" stroke="black" stroke-linecap="round" stroke-linejoin="round" stroke-width="2"/>
      </g>
      <g id="Graphic_10">
        <path d="M 219.5 129.5 L 289.5 129.5 C 297.78 129.5 304.5 140.7 304.5 154.5 C 304.5 168.3 297.78 179.5 289.5 179.5 L 219.5 179.5 C 211.22 179.5 204.5 168.3 204.5 154.5 C 204.5 140.7 211.22 129.5 219.5 129.5 Z" fill="white"/>
        <path d="M 218.88938 129.49743 L 290.47322 129.7983 C 298.0111 129.63512 304.88594 141.96099 304.5 154.5 C 304.4936 168.43772 298.16563 179.16825 289.5 179.5 M 289.9309 179.49972 L 219.24102 179.54495 C 210.55255 178.83472 203.55809 167.51839 204.5 154.5 C 203.69787 141.4498 210.5598 129.45035 219.5 129.5 M 219.01466 129.30672 L 290.00435 129.55262 C 298.2611 129.38512 305.13594 141.71099 304.75 154.25 C 304.7436 168.18772 298.41563 178.91825 289.75 179.25 M 290.05596 179.4977 L 220.08495 179.5017 C 210.80255 178.58472 203.80809 167.26839 204.75 154.25 C 203.94787 141.1998 210.8098 129.20035 219.75 129.25" stroke="black" stroke-linecap="round" stroke-linejoin="round" stroke-width="2"/>
        <text transform="translate(219.5 144.5)" fill="black">
          <tspan font-family="Bradley Hand" font-weight="bold" font-size="16" fill="black" x="2.032" y="14">Terminal</tspan>
        </text>
      </g>
      <g id="Graphic_12">
        <rect x="335" y="129.5" width="100" height="50" fill="white"/>
        <path d="M 334.0317 129.50285 L 435.6971 129.20329 M 435.1203 128.66022 L 435.1371 180.30978 M 435.4417 179.82854 L 334.24263 179.90818 M 335.0335 180.76288 L 334.9996 128.91203 M 334.15655 129.32076 L 435.2453 129.03281 M 435.2702 128.53521 L 435.3856 179.70374 M 435.56673 179.7408 L 335.15796 179.81573 M 335.0619 180.63794 L 335.08484 129.37503" stroke="black" stroke-linecap="round" stroke-linejoin="round" stroke-width="2"/>
        <text transform="translate(340 144.5)" fill="black">
          <tspan font-family="Bradley Hand" font-weight="bold" font-size="16" fill="black" x="20.384" y="14">Proceso</tspan>
        </text>
      </g>
      <g id="Graphic_13">
        <path d="M 520.5 122.75 L 575.5 152.75 L 520.5 182.75 L 465.5 152.75 Z" fill="white"/>
        <path d="M 519.8243 122.37635 L 575.98814 153.43435 M 575.8902 152.94668 L 519.7707 182.89341 M 520.76547 183.04785 L 465.4113 152.67527 M 465.125 153.40884 L 521.12347 122.40481 M 520.0051 122.15047 L 575.65215 152.96967 M 576.0635 152.91216 L 520.2696 182.59847 M 520.8499 182.9968 L 466.0035 152.9358 M 465.19974 153.19306 L 520.59943 122.57882" stroke="black" stroke-linecap="round" stroke-linejoin="round" stroke-width="2"/>
        <text transform="translate(485.35 142.15)" fill="black">
          <tspan font-family="Bradley Hand" font-weight="bold" font-size="16" fill="black" x="6.962" y="14">Decisión</tspan>
        </text>
      </g>
      <g id="Graphic_14">
        <path d="M 630.2 129.5 L 737 129.5 L 710.3 179.5 L 603.5 179.5 Z" fill="white"/>
        <path d="M 629.62404 129.49938 L 737.421 129.61477 M 737.0316 129.29698 L 710.26805 179.37087 M 710.8173 179.0705 L 602.9333 179.5171 M 602.8637 180.38914 L 630.59624 128.76237 M 629.7491 129.32591 L 736.9872 129.388 M 737.2053 129.198 L 710.59995 178.97236 M 710.94235 178.95195 L 603.4583 179.45882 M 602.89094 180.21163 L 630.2674 129.34405" stroke="black" stroke-linecap="round" stroke-linejoin="round" stroke-width="2"/>
        <text transform="translate(635.2 134.5)" fill="black">
          <tspan font-family="Bradley Hand" font-weight="bold" font-size="16" fill="black" x=".54599924" y="14">Entrada o </tspan>
          <tspan font-family="Bradley Hand" font-weight="bold" font-size="16" fill="black" x="11.089999" y="34">Salida</tspan>
        </text>
      </g>
      <g id="Graphic_15">
        <text transform="translate(781.0849 134.5)" fill="black">
          <tspan font-family="Bradley Hand" font-weight="bold" font-size="16" fill="black" x="47961635e-20" y="14">Flujo</tspan>
        </text>
      </g>
    </g>
  </g>
</svg>
