<?xml version="1.0" encoding="UTF-8" standalone="no"?>
<!DOCTYPE svg PUBLIC "-//W3C//DTD SVG 1.1//EN" "http://www.w3.org/Graphics/SVG/1.1/DTD/svg11.dtd">
<svg version="1.1" xmlns="http://www.w3.org/2000/svg" xmlns:dc="http://purl.org/dc/elements/1.1/" xmlns:xl="http://www.w3.org/1999/xlink" viewBox="377 189 511 507" width="511" height="507">
  <defs>
    <marker orient="auto" overflow="visible" markerUnits="strokeWidth" id="FilledArrow_Marker" stroke-linejoin="miter" stroke-miterlimit="10" viewBox="-1 -3 6 6" markerWidth="6" markerHeight="6" color="black">
      <g>
        <path d="M 4 0 L 0 -1.5 L 0 1.5 Z" fill="currentColor" stroke="currentColor" stroke-width="1"/>
      </g>
    </marker>
  </defs>
  <g id="Canvas_1" fill="none" stroke="none" stroke-opacity="1" fill-opacity="1" stroke-dasharray="none">
    <title>Canvas 1</title>
    <g id="Canvas_1_Layer_1">
      <title>Layer 1</title>
      <g id="Graphic_2">
        <path d="M 406.75 190.2 L 469.75 190.2 C 477.202 190.2 483.25 196.92 483.25 205.2 C 483.25 213.48 477.202 220.2 469.75 220.2 L 406.75 220.2 C 399.298 220.2 393.25 213.48 393.25 205.2 C 393.25 196.92 399.298 190.2 406.75 190.2 Z" fill="white"/>
        <path d="M 406.75 190.2 L 469.75 190.2 C 477.202 190.2 483.25 196.92 483.25 205.2 C 483.25 213.48 477.202 220.2 469.75 220.2 L 406.75 220.2 C 399.298 220.2 393.25 213.48 393.25 205.2 C 393.25 196.92 399.298 190.2 406.75 190.2 Z" stroke="black" stroke-linecap="round" stroke-linejoin="round" stroke-width="1"/>
        <text transform="translate(407.25 198.7)" fill="black">
          <tspan font-family="Bradley Hand" font-weight="bold" font-size="10" fill="black" x="18.685" y="9">Inicio</tspan>
        </text>
      </g>
      <g id="Graphic_3">
        <path d="M 413.95 238.5 L 478.75 238.5 L 462.55 268.5 L 397.75 268.5 Z" fill="white"/>
        <path d="M 413.95 238.5 L 478.75 238.5 L 462.55 268.5 L 397.75 268.5 Z" stroke="black" stroke-linecap="round" stroke-linejoin="round" stroke-width="1"/>
        <text transform="translate(418.95 247)" fill="black">
          <tspan font-family="Bradley Hand" font-weight="bold" font-size="10" fill="black" x="9.599999" y="9">anio</tspan>
        </text>
      </g>
      <g id="Line_4">
        <path d="M 438.25 220.2 L 438.25 229.35 L 438.25 232.6" marker-end="url(#FilledArrow_Marker)" stroke="black" stroke-linecap="round" stroke-linejoin="round" stroke-width="1"/>
      </g>
      <g id="Graphic_5">
        <rect x="377.5" y="286.8" width="121.5" height="30" fill="white"/>
        <rect x="377.5" y="286.8" width="121.5" height="30" stroke="black" stroke-linecap="round" stroke-linejoin="round" stroke-width="1"/>
        <text transform="translate(382.5 295.3)" fill="black">
          <tspan font-family="Bradley Hand" font-weight="bold" font-size="10" fill="black" x="3.99" y="9">resto_400 = anio % 400</tspan>
        </text>
      </g>
      <g id="Line_6">
        <path d="M 438.25 268.5 L 438.25 277.65 L 438.25 280.9" marker-end="url(#FilledArrow_Marker)" stroke="black" stroke-linecap="round" stroke-linejoin="round" stroke-width="1"/>
      </g>
      <g id="Graphic_7">
        <path d="M 438.25 335.1 L 498.25 353.1 L 438.25 371.1 L 378.25 353.1 Z" fill="white"/>
        <path d="M 438.25 335.1 L 498.25 353.1 L 438.25 371.1 L 378.25 353.1 Z" stroke="black" stroke-linecap="round" stroke-linejoin="round" stroke-width="1"/>
        <text transform="translate(399.45 346.24)" fill="black">
          <tspan font-family="Bradley Hand" font-weight="bold" font-size="10" fill="black" x="5.74" y="9">resto_400 == 0</tspan>
        </text>
      </g>
      <g id="Line_8">
        <path d="M 438.25 316.8 L 438.25 325.95 L 438.25 329.2" marker-end="url(#FilledArrow_Marker)" stroke="black" stroke-linecap="round" stroke-linejoin="round" stroke-width="1"/>
      </g>
      <g id="Graphic_9">
        <path d="M 404.725 389.4 L 494.125 389.4 L 471.775 419.4 L 382.375 419.4 Z" fill="white"/>
        <path d="M 404.725 389.4 L 494.125 389.4 L 471.775 419.4 L 382.375 419.4 Z" stroke="black" stroke-linecap="round" stroke-linejoin="round" stroke-width="1"/>
        <text transform="translate(409.725 397.9)" fill="black">
          <tspan font-family="Bradley Hand" font-weight="bold" font-size="10" fill="black" x="3.4499996" y="9">‘Es bisiesto’</tspan>
        </text>
      </g>
      <g id="Line_10">
        <path d="M 438.25 371.1 L 438.25 380.25 L 438.25 383.5" marker-end="url(#FilledArrow_Marker)" stroke="black" stroke-linecap="round" stroke-linejoin="round" stroke-width="1"/>
      </g>
      <g id="Graphic_13">
        <rect x="514.25" y="389.4" width="121.5" height="30" fill="white"/>
        <rect x="514.25" y="389.4" width="121.5" height="30" stroke="black" stroke-linecap="round" stroke-linejoin="round" stroke-width="1"/>
        <text transform="translate(519.25 397.9)" fill="black">
          <tspan font-family="Bradley Hand" font-weight="bold" font-size="10" fill="black" x="5.02" y="9">resto_100 = anio % 100</tspan>
        </text>
      </g>
      <g id="Graphic_12">
        <path d="M 575 438.8 L 635 456.8 L 575 474.8 L 515 456.8 Z" fill="white"/>
        <path d="M 575 438.8 L 635 456.8 L 575 474.8 L 515 456.8 Z" stroke="black" stroke-linecap="round" stroke-linejoin="round" stroke-width="1"/>
        <text transform="translate(536.2 449.94)" fill="black">
          <tspan font-family="Bradley Hand" font-weight="bold" font-size="10" fill="black" x="6.255" y="9">resto_100 == 0</tspan>
        </text>
      </g>
      <g id="Line_11">
        <path d="M 575 419.4 L 575 429.1 L 575 432.9" marker-end="url(#FilledArrow_Marker)" stroke="black" stroke-linecap="round" stroke-linejoin="round" stroke-width="1"/>
      </g>
      <g id="Line_14">
        <path d="M 498.25 353.1 L 575 353.1 L 575 383.5" marker-end="url(#FilledArrow_Marker)" stroke="black" stroke-linecap="round" stroke-linejoin="round" stroke-width="1"/>
      </g>
      <g id="Graphic_15">
        <path d="M 541.475 494.2 L 630.875 494.2 L 608.525 524.2 L 519.125 524.2 Z" fill="white"/>
        <path d="M 541.475 494.2 L 630.875 494.2 L 608.525 524.2 L 519.125 524.2 Z" stroke="black" stroke-linecap="round" stroke-linejoin="round" stroke-width="1"/>
        <text transform="translate(546.475 502.7)" fill="black">
          <tspan font-family="Bradley Hand" font-weight="bold" font-size="10" fill="black" x="3.3199996" y="9">‘Es normal’</tspan>
        </text>
      </g>
      <g id="Line_16">
        <path d="M 575 474.8 L 575 484.5 L 575 488.3" marker-end="url(#FilledArrow_Marker)" stroke="black" stroke-linecap="round" stroke-linejoin="round" stroke-width="1"/>
      </g>
      <g id="Graphic_21">
        <rect x="648.6" y="494.2" width="121.5" height="30" fill="white"/>
        <rect x="648.6" y="494.2" width="121.5" height="30" stroke="black" stroke-linecap="round" stroke-linejoin="round" stroke-width="1"/>
        <text transform="translate(653.6 502.7)" fill="black">
          <tspan font-family="Bradley Hand" font-weight="bold" font-size="10" fill="black" x="14.89" y="9">resto_4 = anio % 4</tspan>
        </text>
      </g>
      <g id="Graphic_20">
        <path d="M 709.35 543 L 769.35 561 L 709.35 579 L 649.35 561 Z" fill="white"/>
        <path d="M 709.35 543 L 769.35 561 L 709.35 579 L 649.35 561 Z" stroke="black" stroke-linecap="round" stroke-linejoin="round" stroke-width="1"/>
        <text transform="translate(670.55 554.14)" fill="black">
          <tspan font-family="Bradley Hand" font-weight="bold" font-size="10" fill="black" x="11.19" y="9">resto_4 == 0</tspan>
        </text>
      </g>
      <g id="Line_19">
        <path d="M 709.35 524.2 L 709.35 533.6 L 709.35 537.1" marker-end="url(#FilledArrow_Marker)" stroke="black" stroke-linecap="round" stroke-linejoin="round" stroke-width="1"/>
      </g>
      <g id="Graphic_18">
        <path d="M 675.825 597.8 L 765.225 597.8 L 742.875 627.8 L 653.475 627.8 Z" fill="white"/>
        <path d="M 675.825 597.8 L 765.225 597.8 L 742.875 627.8 L 653.475 627.8 Z" stroke="black" stroke-linecap="round" stroke-linejoin="round" stroke-width="1"/>
        <text transform="translate(680.825 606.3)" fill="black">
          <tspan font-family="Bradley Hand" font-weight="bold" font-size="10" fill="black" x="3.4499996" y="9">‘Es bisiesto’</tspan>
        </text>
      </g>
      <g id="Line_17">
        <path d="M 709.35 579 L 709.35 588.4 L 709.35 591.9" marker-end="url(#FilledArrow_Marker)" stroke="black" stroke-linecap="round" stroke-linejoin="round" stroke-width="1"/>
      </g>
      <g id="Line_22">
        <path d="M 635 456.8 L 709.35 456.8 L 709.35 488.3" marker-end="url(#FilledArrow_Marker)" stroke="black" stroke-linecap="round" stroke-linejoin="round" stroke-width="1"/>
      </g>
      <g id="Graphic_23">
        <path d="M 407.3 665 L 470.3 665 C 477.752 665 483.8 671.72 483.8 680 C 483.8 688.28 477.752 695 470.3 695 L 407.3 695 C 399.848 695 393.8 688.28 393.8 680 C 393.8 671.72 399.848 665 407.3 665 Z" fill="white"/>
        <path d="M 407.3 665 L 470.3 665 C 477.752 665 483.8 671.72 483.8 680 C 483.8 688.28 477.752 695 470.3 695 L 407.3 695 C 399.848 695 393.8 688.28 393.8 680 C 393.8 671.72 399.848 665 407.3 665 Z" stroke="black" stroke-linecap="round" stroke-linejoin="round" stroke-width="1"/>
        <text transform="translate(407.8 673.5)" fill="black">
          <tspan font-family="Bradley Hand" font-weight="bold" font-size="10" fill="black" x="23.185" y="9">Fin</tspan>
        </text>
      </g>
      <g id="Line_24">
        <path d="M 438.25 419.4 L 438.25 429.4 L 438.525 542.2 L 438.8 654.1 L 438.8 659.1" marker-end="url(#FilledArrow_Marker)" stroke="black" stroke-linecap="round" stroke-linejoin="round" stroke-width="1"/>
      </g>
      <g id="Line_25">
        <path d="M 575 524.2 L 575 646.255 L 438.8 646.255 L 438.8 659.1" marker-end="url(#FilledArrow_Marker)" stroke="black" stroke-linecap="round" stroke-linejoin="round" stroke-width="1"/>
      </g>
      <g id="Line_26">
        <path d="M 709.35 627.8 L 709.35 646.4 L 438.8 646.4 L 438.8 659.1" marker-end="url(#FilledArrow_Marker)" stroke="black" stroke-linecap="round" stroke-linejoin="round" stroke-width="1"/>
      </g>
      <g id="Graphic_27">
        <path d="M 797.15 597.8 L 886.55 597.8 L 864.2 627.8 L 774.8 627.8 Z" fill="white"/>
        <path d="M 797.15 597.8 L 886.55 597.8 L 864.2 627.8 L 774.8 627.8 Z" stroke="black" stroke-linecap="round" stroke-linejoin="round" stroke-width="1"/>
        <text transform="translate(802.15 606.3)" fill="black">
          <tspan font-family="Bradley Hand" font-weight="bold" font-size="10" fill="black" x="3.3199996" y="9">‘Es normal’</tspan>
        </text>
      </g>
      <g id="Line_28">
        <path d="M 769.35 561 L 830.675 561 L 830.675 591.9" marker-end="url(#FilledArrow_Marker)" stroke="black" stroke-linecap="round" stroke-linejoin="round" stroke-width="1"/>
      </g>
      <g id="Line_30">
        <path d="M 830.675 627.8 L 830.675 646.4 L 438.8 646.4 L 438.8 659.1" marker-end="url(#FilledArrow_Marker)" stroke="black" stroke-linecap="round" stroke-linejoin="round" stroke-width="1"/>
      </g>
    </g>
  </g>
</svg>
