<?xml version="1.0" encoding="UTF-8" standalone="no"?>
<!DOCTYPE svg PUBLIC "-//W3C//DTD SVG 1.1//EN" "http://www.w3.org/Graphics/SVG/1.1/DTD/svg11.dtd">
<svg xmlns:dc="http://purl.org/dc/elements/1.1/" xmlns:xl="http://www.w3.org/1999/xlink" version="1.1" xmlns="http://www.w3.org/2000/svg" viewBox="140 -256 744 169" width="744" height="169">
  <defs/>
  <g id="Canvas_1" stroke-opacity="1" stroke-dasharray="none" fill-opacity="1" stroke="none" fill="none">
    <title>Canvas 1</title>
    <g id="Canvas_1_Layer_1">
      <title>Layer 1</title>
      <g id="Line_4">
        <path d="M 422.22386 -210 C 377.7121 -197.28809 301.94815 -180.17641 265.695 -167.72362 M 422.22386 -210 C 378.2121 -197.78809 302.44815 -180.67641 266.195 -168.22362" stroke="black" stroke-linecap="round" stroke-linejoin="round" stroke-width="2"/>
      </g>
      <g id="Graphic_68">
        <rect x="141.2" y="-255" width="741.8" height="167.5" stroke="white" stroke-linecap="round" stroke-linejoin="round" stroke-width="1"/>
      </g>
      <g id="Graphic_22">
        <text transform="translate(411.456 -237)" fill="black">
          <tspan font-family="Bradley Hand" font-weight="bold" font-size="18" fill="black" x="36948222e-20" y="15">Condicionales</tspan>
        </text>
      </g>
      <g id="Graphic_23">
        <text transform="translate(209.305 -171.1)" fill="black">
          <tspan font-family="Bradley Hand" font-weight="bold" font-size="18" fill="black" x="0" y="15">simple</tspan>
          <tspan font-family="Bradley Hand" font-weight="bold" font-size="18" fill="black" x="10.575" y="37">(IF)</tspan>
        </text>
      </g>
      <g id="Graphic_24">
        <text transform="translate(420.276 -171.1)" fill="black">
          <tspan font-family="Bradley Hand" font-weight="bold" font-size="18" fill="black" x="26.883" y="15">doble</tspan>
          <tspan font-family="Bradley Hand" font-weight="bold" font-size="18" fill="black" x="66080474e-20" y="37">(IF - ELSE)</tspan>
        </text>
      </g>
      <g id="Line_25">
        <path d="M 466.3694 -210 C 467.2674 -200.5035 466.8407 -188.02539 466.86827 -176.1 M 466.3694 -210 C 467.7674 -201.0035 467.3407 -188.52539 467.36827 -176.6" stroke="black" stroke-linecap="round" stroke-linejoin="round" stroke-width="2"/>
      </g>
      <g id="Graphic_63">
        <text transform="translate(661.171 -171.1)" fill="black">
          <tspan font-family="Bradley Hand" font-weight="bold" font-size="18" fill="black" x="1.512" y="15">anidada compacta</tspan>
          <tspan font-family="Bradley Hand" font-weight="bold" font-size="18" fill="black" x="22737368e-20" y="37">(IF - ELIF - ELSE)</tspan>
        </text>
      </g>
      <g id="Line_64">
        <path d="M 517.3363 -210 C 563.91556 -197.20635 621.0854 -186.46435 669.23606 -176.1 M 517.3363 -210 C 564.41556 -197.70635 621.5854 -186.96435 669.73606 -176.6" stroke="black" stroke-linecap="round" stroke-linejoin="round" stroke-width="2"/>
      </g>
    </g>
  </g>
</svg>
