<?xml version="1.0" encoding="UTF-8" standalone="no"?>
<!DOCTYPE svg PUBLIC "-//W3C//DTD SVG 1.1//EN" "http://www.w3.org/Graphics/SVG/1.1/DTD/svg11.dtd">
<svg xmlns:dc="http://purl.org/dc/elements/1.1/" xmlns:xl="http://www.w3.org/1999/xlink" version="1.1" xmlns="http://www.w3.org/2000/svg" viewBox="310 21 154 408" width="154" height="408">
  <defs>
    <marker orient="auto" overflow="visible" markerUnits="strokeWidth" id="SharpArrow_Marker" stroke-linejoin="miter" stroke-miterlimit="10" viewBox="-2 -2 5 4" markerWidth="5" markerHeight="4" color="black">
      <g>
        <path d="M 1.5 0 L -.9 -.9 L 0 0 L 0 0 L -.9 .9 Z" fill="currentColor" stroke="currentColor" stroke-width="1"/>
      </g>
    </marker>
  </defs>
  <g id="Canvas_1" stroke-opacity="1" stroke-dasharray="none" fill-opacity="1" stroke="none" fill="none">
    <title>Canvas 1</title>
    <g id="Canvas_1_Layer_1">
      <title>Layer 1</title>
      <g id="Line_22">
        <path d="M 365.9405 22.5 C 364.3735 33.362423 365.77107 31.417293 366.08486 50.704495 M 365.9405 22.5 C 364.8735 32.862423 366.27107 30.917293 366.58486 50.204495" marker-end="url(#SharpArrow_Marker)" stroke="black" stroke-linecap="round" stroke-linejoin="round" stroke-width="2"/>
      </g>
      <g id="Graphic_23">
        <path d="M 366 125.5 L 419.5 149.9 L 366 174.3 L 312.5 149.9 Z" fill="white"/>
        <path d="M 365.7187 125.36858 L 419.6334 150.55832 M 419.4516 150.242 L 365.17716 174.65112 M 365.94615 174.63331 L 312.1234 149.7769 M 312.1572 150.51147 L 366.41664 125.30646 M 365.87427 125.17819 L 419.36413 150.1452 M 419.57825 150.12068 L 365.73205 174.38829 M 366.04795 174.55853 L 313.04185 150.0616 M 312.2609 150.34058 L 366.10227 125.32606" stroke="black" stroke-linecap="round" stroke-linejoin="round" stroke-width="2"/>
        <text transform="translate(331.945 140.412)" fill="black">
          <tspan font-family="Bradley Hand" font-weight="bold" font-size="14" fill="black" x="5.634" y="12">b&gt;mayor</tspan>
        </text>
      </g>
      <g id="Graphic_25">
        <rect x="321" y="57" width="90" height="36" fill="white"/>
        <path d="M 320.33187 57.001 L 411.90235 56.86397 M 411.46077 56.02335 L 410.56984 93.71672 M 411.0583 93.41343 L 320.73185 92.85574 M 321.23984 93.85103 L 320.9954 56.291266 M 320.45677 56.81244 L 411.56585 56.71654 M 411.6201 55.89916 L 410.80757 93.28795 M 411.18314 93.31294 L 321.35792 92.80831 M 321.29988 93.72645 L 321.0458 56.875515" stroke="black" stroke-linecap="round" stroke-linejoin="round" stroke-width="2"/>
        <text transform="translate(326 66)" fill="black">
          <tspan font-family="Bradley Hand" font-weight="bold" font-size="14" fill="black" x="10.299" y="12">mayor=a</tspan>
        </text>
      </g>
      <g id="Line_26">
        <path d="M 366 93 C 365.5443 103.43469 365.67705 103.33567 366.14507 119.20396 M 366 93 C 366.0443 102.93469 366.17705 102.83567 366.64507 118.70396" marker-end="url(#SharpArrow_Marker)" stroke="black" stroke-linecap="round" stroke-linejoin="round" stroke-width="2"/>
      </g>
      <g id="Graphic_28">
        <rect x="321" y="206.8" width="90" height="36" fill="white"/>
        <path d="M 320.17036 206.8002 L 411.48817 206.77833 M 411.05314 206.21455 L 411.0635 243.91843 M 412.04674 243.07552 L 320.7678 243.07063 M 321.43883 243.5175 L 320.99602 206.46725 M 320.29534 206.56207 L 411.17827 206.54932 M 411.1954 206.08955 L 411.25114 242.95045 M 412.17174 242.9913 L 321.5585 243.01044 M 321.4773 243.39355 L 321.00795 206.6764" stroke="black" stroke-linecap="round" stroke-linejoin="round" stroke-width="2"/>
        <text transform="translate(326 215.8)" fill="black">
          <tspan font-family="Bradley Hand" font-weight="bold" font-size="14" fill="black" x="10.509" y="12">mayor=b</tspan>
        </text>
      </g>
      <g id="Line_29">
        <path d="M 366.00752 173.03308 L 365.84313 200.71808 M 366.35016 172.78363 L 366.1104 199.61612" marker-end="url(#SharpArrow_Marker)" stroke="black" stroke-linecap="round" stroke-linejoin="round" stroke-width="2"/>
      </g>
      <g id="Graphic_30">
        <path d="M 366 275.3 L 419.5 299.7 L 366 324.1 L 312.5 299.7 Z" fill="white"/>
        <path d="M 365.6035 275.11558 L 419.67315 300.26354 M 419.64134 299.9345 L 365.41316 323.90206 M 366.34424 323.74963 L 312.48277 299.4655 M 312.20277 299.8205 L 366.5297 275.05857 M 365.77256 274.8958 L 419.43386 299.9326 M 419.78556 299.853 L 366.22667 323.60153 M 366.46514 323.63374 L 312.81747 299.5447 M 312.28593 299.6037 L 366.11783 275.15927" stroke="black" stroke-linecap="round" stroke-linejoin="round" stroke-width="2"/>
        <text transform="translate(331.945 290.212)" fill="black">
          <tspan font-family="Bradley Hand" font-weight="bold" font-size="14" fill="black" x="6.012" y="12">c&gt;mayor</tspan>
        </text>
      </g>
      <g id="Line_31">
        <path d="M 366.0502 240.81836 L 365.3107 270.00075 M 366.3756 240.57027 L 365.70156 268.93746" marker-end="url(#SharpArrow_Marker)" stroke="black" stroke-linecap="round" stroke-linejoin="round" stroke-width="2"/>
      </g>
      <g id="Line_32">
        <path d="M 417.91013 149.9158 L 461.2085 149.48566 M 460.39197 147.60635 L 461.4368 259.19086 M 462.23254 258.0609 L 371.0984 259.54327 M 418.15823 149.47402 L 460.6579 149.06941 M 460.79766 147.3549 L 461.7717 257.82312 M 462.4859 258.01923 L 372.6176 259.29297" marker-end="url(#SharpArrow_Marker)" stroke="black" stroke-linecap="round" stroke-linejoin="round" stroke-width="2"/>
      </g>
      <g id="Graphic_33">
        <rect x="321" y="356.6" width="90" height="36" fill="white"/>
        <path d="M 320.4012 356.6033 L 411.7979 356.09923 M 411.4273 355.2505 L 410.5288 393.471 M 411.3608 392.98466 L 320.99443 392.88993 M 321.44308 393.6783 L 320.98858 355.6439 M 320.52604 356.4492 L 411.53167 355.8623 M 411.5828 355.12623 L 410.74036 392.86057 M 411.4858 392.88594 L 321.55857 392.85566 M 321.44565 393.5548 L 321.06986 356.47566" stroke="black" stroke-linecap="round" stroke-linejoin="round" stroke-width="2"/>
        <text transform="translate(326 365.6)" fill="black">
          <tspan font-family="Bradley Hand" font-weight="bold" font-size="14" fill="black" x="10.887" y="12">mayor=c</tspan>
        </text>
      </g>
      <g id="Line_34">
        <path d="M 365.98317 323.2949 L 366.57217 351.47522 M 366.40768 323.04125 L 366.8384 350.4613" marker-end="url(#SharpArrow_Marker)" stroke="black" stroke-linecap="round" stroke-linejoin="round" stroke-width="2"/>
      </g>
      <g id="Line_35">
        <path d="M 365.9405 392.6 C 365.11016 403.8295 367.9183 401.70263 366.08486 420.8045 M 365.9405 392.6 C 365.61016 403.3295 368.4183 401.20263 366.58486 420.3045" marker-end="url(#SharpArrow_Marker)" stroke="black" stroke-linecap="round" stroke-linejoin="round" stroke-width="2"/>
      </g>
      <g id="Line_36">
        <path d="M 417.97964 299.72827 L 461.62127 298.91678 M 460.89326 297.78344 L 460.9069 411.64533 M 462.0524 411.11147 L 370.36943 409.9895 M 418.2267 299.321 L 461.1408 298.54018 M 461.17014 297.53343 L 461.2218 410.84744 M 462.3014 410.9466 L 371.8241 409.9154" marker-end="url(#SharpArrow_Marker)" stroke="black" stroke-linecap="round" stroke-linejoin="round" stroke-width="2"/>
      </g>
    </g>
  </g>
</svg>
